<svg xmlns="http://www.w3.org/2000/svg" width="1200" height="675" viewBox="0 0 1200 675">
  <defs>
    <linearGradient id="bg" x1="0" y1="0" x2="1" y2="1">
      <stop offset="0" stop-color="#f8fafc"/>
      <stop offset="1" stop-color="#eef2f7"/>
    </linearGradient>
    <radialGradient id="glow" cx="68%" cy="34%" r="60%">
      <stop offset="0" stop-color="#b89b2d" stop-opacity="0.22"/>
      <stop offset="1" stop-color="#b89b2d" stop-opacity="0"/>
    </radialGradient>
    <filter id="shadow" x="-20%" y="-20%" width="140%" height="140%">
      <feDropShadow dx="0" dy="14" stdDeviation="18" flood-color="#0b1220" flood-opacity="0.10"/>
    </filter>
  </defs>

  <rect width="1200" height="675" fill="url(#bg)"/>
  <rect width="1200" height="675" fill="url(#glow)"/>

  <g opacity="0.7">
    <circle cx="320" cy="510" r="220" fill="#ffffff"/>
    <circle cx="980" cy="210" r="170" fill="#ffffff"/>
    <circle cx="230" cy="170" r="120" fill="#111827" opacity="0.06"/>
  </g>

  <!-- Card -->
  <g filter="url(#shadow)">
    <rect x="220" y="130" width="760" height="430" rx="28" fill="#ffffff" stroke="#e5e7eb"/>
  </g>
  <rect x="220" y="130" width="760" height="8" rx="4" fill="#b89b2d" opacity="0.9"/>

  <!-- Building -->
  <g>
    <rect x="320" y="210" width="260" height="300" rx="22" fill="#f6f7f9" stroke="#e5e7eb"/>
    <rect x="350" y="245" width="54" height="48" rx="10" fill="#ffffff" stroke="#e5e7eb"/>
    <rect x="420" y="245" width="54" height="48" rx="10" fill="#ffffff" stroke="#e5e7eb"/>
    <rect x="490" y="245" width="54" height="48" rx="10" fill="#ffffff" stroke="#e5e7eb"/>
    <rect x="350" y="310" width="54" height="48" rx="10" fill="#ffffff" stroke="#e5e7eb"/>
    <rect x="420" y="310" width="54" height="48" rx="10" fill="#ffffff" stroke="#e5e7eb"/>
    <rect x="490" y="310" width="54" height="48" rx="10" fill="#ffffff" stroke="#e5e7eb"/>
    <rect x="350" y="375" width="54" height="48" rx="10" fill="#ffffff" stroke="#e5e7eb"/>
    <rect x="420" y="375" width="54" height="48" rx="10" fill="#ffffff" stroke="#e5e7eb"/>
    <rect x="490" y="375" width="54" height="48" rx="10" fill="#ffffff" stroke="#e5e7eb"/>
    <rect x="405" y="445" width="90" height="65" rx="16" fill="#ffffff" stroke="#e5e7eb"/>
  </g>

  <!-- Chart panel -->
  <g>
    <rect x="620" y="210" width="300" height="220" rx="22" fill="#f6f7f9" stroke="#e5e7eb"/>
    <path d="M660 390 L720 330 L770 360 L820 290 L880 320" fill="none" stroke="#b89b2d" stroke-width="10" stroke-linecap="round" stroke-linejoin="round"/>
    <circle cx="720" cy="330" r="7" fill="#b89b2d"/>
    <circle cx="770" cy="360" r="7" fill="#b89b2d"/>
    <circle cx="820" cy="290" r="7" fill="#b89b2d"/>
    <circle cx="880" cy="320" r="7" fill="#b89b2d"/>
    <rect x="660" y="245" width="180" height="14" rx="7" fill="#111827" opacity="0.08"/>
    <rect x="660" y="270" width="140" height="12" rx="6" fill="#111827" opacity="0.06"/>
  </g>

  <!-- Small accents -->
  <g opacity="0.9">
    <circle cx="260" cy="220" r="6" fill="#111827" opacity="0.12"/>
    <circle cx="284" cy="220" r="6" fill="#111827" opacity="0.10"/>
    <circle cx="308" cy="220" r="6" fill="#111827" opacity="0.08"/>
  </g>
</svg>
